# xmcd CD database file
#
# Track frame offsets:
#	150
#	33389
#	59913
#	85866
#	115211
#	138377
#
# Disc length: 2315 seconds
#
# Revision: 0
# Processed by: cddbd v1.5.2PL0 Copyright (c) Steve Scherf et al.
# Submitted via: CDex 1.70beta2
#
DISCID=52090906
DTITLE=Buck Clayton All Stars - Copenhagen Concert Vol. 2
DYEAR=1959
DGENRE=Jazz
TTITLE0=Exactly like you
TTITLE1=I want a little Girl
TTITLE2=Everyday I have the Blues
TTITLE3=Deed I do
TTITLE4=Goin' to Chicago
TTITLE5=Sent for you yesterday
EXTD=YEAR: 1959
EXTT0=
EXTT1=
EXTT2=
EXTT3=
EXTT4=
EXTT5=
PLAYORDER=
